<svg width="86" height="63" viewBox="0 0 86 63" fill="none" xmlns="http://www.w3.org/2000/svg">
<g clip-path="url(#clip0_248_70)">
<path d="M85.9867 31.4404C85.9468 12.9445 76.4208 5.16719 69.9681 2.02713C67.1476 0.649211 64.0476 0 60.9211 0H41.6562C33.035 0 25.9437 3.97476 22.7373 11.2618L0 63H8.38181L28.3385 15.0114C32.0371 17.224 33.7667 20.9205 33.7667 20.9205C28.5913 22.6429 28.5913 33.7192 28.5913 33.7192V63H41.5897H60.9344C64.061 63 67.1609 62.3508 69.9814 60.9861C76.4607 57.8328 86 50.029 86 31.4404H85.9734H85.9867ZM58.7658 55.4479H53.8431C53.8431 55.4479 53.9762 41.7483 53.9762 31.9306C53.9762 22.1129 48.9072 20.682 48.9072 20.682C48.9072 20.682 54.1092 14.8921 54.1092 6.77035C60.1361 6.77035 73.414 3.90852 73.414 30.3539C73.414 56.7994 58.7658 55.4479 58.7658 55.4479Z" fill="#5C4A3C"/>
</g>
<defs>
<clipPath id="clip0_248_70">
<rect width="86" height="63" fill="white"/>
</clipPath>
</defs>
</svg>
